<?xml version="1.0" encoding="UTF-8"?>
<svg width="32" height="32" viewBox="0 0 32 32" fill="none" xmlns="http://www.w3.org/2000/svg">
    <path fill-rule="evenodd" clip-rule="evenodd"
        d="M6.27413 23.9492C5.35011 24.002 4.76293 22.9766 5.27617 22.2064L8.12463 17.9319C8.19666 17.8238 8.22896 17.6941 8.21604 17.5649L7.78881 13.2908C7.72637 12.666 8.18863 12.1116 8.81443 12.0606L19.7344 11.1714L13.845 23.5164L6.27413 23.9492V23.9492Z"
        fill="url(#paint0_linear_0_201)" />
    <path fill-rule="evenodd" clip-rule="evenodd"
        d="M27.562 22.7377C28.093 23.4959 27.5294 24.5347 26.6043 24.5031L21.4724 24.3273C21.3425 24.3229 21.2151 24.3637 21.112 24.4427L17.7033 27.0531C17.2048 27.4349 16.49 27.3334 16.1175 26.8279L9.61586 18.005L23.2107 16.5243L27.562 22.7377V22.7377Z"
        fill="url(#paint1_linear_0_201)" />
    <path fill-rule="evenodd" clip-rule="evenodd"
        d="M16.0849 4.87764C16.4883 4.0445 17.6701 4.0305 18.0932 4.85382L20.4401 9.42097C20.4994 9.53655 20.5971 9.62792 20.7163 9.67952L24.6567 11.3843C25.233 11.6336 25.4926 12.3073 25.2327 12.8789L20.6955 22.8555L12.7789 11.705L16.0849 4.87764V4.87764Z"
        fill="url(#paint2_linear_0_201)" />
    <path fill-rule="evenodd" clip-rule="evenodd"
        d="M16.0849 4.87764C16.4883 4.0445 17.6701 4.0305 18.0932 4.85382L20.4401 9.42097C20.4994 9.53655 20.5971 9.62792 20.7163 9.67952L24.6567 11.3843C25.233 11.6336 25.4926 12.3073 25.2327 12.8789L20.6955 22.8555L12.7789 11.705L16.0849 4.87764V4.87764Z"
        fill="url(#paint3_linear_0_201)" />
    <path fill-rule="evenodd" clip-rule="evenodd"
        d="M19.7344 11.1713L16.6931 17.2345L8.77569 17.7308C8.47445 17.7497 8.21224 17.5269 8.18223 17.2266L7.7888 13.2907C7.72635 12.666 8.18862 12.1115 8.81442 12.0605L19.7344 11.1713V11.1713Z"
        fill="url(#paint4_linear_0_201)" />
    <path fill-rule="evenodd" clip-rule="evenodd"
        d="M4.66794 15.9878C4.0491 15.9878 3.54742 16.4897 3.54742 17.1088C3.54742 17.7279 4.0491 18.2298 4.66794 18.2298C4.96882 18.2298 5.242 18.1112 5.4433 17.9181V17.9223L6.29747 17.0678H5.78772C5.76614 16.4677 5.27305 15.9878 4.66794 15.9878Z"
        fill="url(#paint5_linear_0_201)" />
    <path fill-rule="evenodd" clip-rule="evenodd"
        d="M23.7432 7.31465C24.0528 6.7786 23.8693 6.0931 23.3334 5.78355C22.7975 5.474 22.112 5.65761 21.8024 6.19366C21.653 6.45236 21.6184 6.74588 21.6828 7.01515L21.679 7.01293L21.9914 8.18009L22.2441 7.74253C22.775 8.02692 23.4397 7.84011 23.7432 7.31465Z"
        fill="url(#paint6_linear_0_201)" />
    <path fill-rule="evenodd" clip-rule="evenodd"
        d="M21.6784 28.0533C21.988 28.5894 22.6734 28.773 23.2094 28.4634C23.7453 28.1539 23.9288 27.4684 23.6191 26.9323C23.4686 26.6716 23.2291 26.4943 22.9611 26.4165L22.9633 26.4153L21.7962 26.1026L22.0513 26.5444C21.5439 26.8636 21.3759 27.5297 21.6784 28.0533Z"
        fill="url(#paint7_linear_0_201)" />
    <defs>
        <linearGradient id="paint0_linear_0_201" x1="19.7344" y1="11.1714" x2="4.0293" y2="11.1714"
            gradientUnits="userSpaceOnUse">
            <stop stop-color="#3EB9FC" />
            <stop offset="1" stop-color="#3AE5F6" />
        </linearGradient>
        <linearGradient id="paint1_linear_0_201" x1="27.0039" y1="23.0876" x2="19.7513" y2="11.6611"
            gradientUnits="userSpaceOnUse">
            <stop stop-color="#3CB2FD" />
            <stop offset="1" stop-color="#2170F3" />
        </linearGradient>
        <linearGradient id="paint2_linear_0_201" x1="28.3377" y1="9.12939" x2="17.0651" y2="2.85327"
            gradientUnits="userSpaceOnUse">
            <stop stop-color="#50D3AB" />
            <stop offset="1" stop-color="#6DBFFF" />
        </linearGradient>
        <linearGradient id="paint3_linear_0_201" x1="18.0504" y1="5.12277" x2="11.8945" y2="16.7948"
            gradientUnits="userSpaceOnUse">
            <stop stop-color="#F280FF" />
            <stop offset="1" stop-color="#A723E4" />
        </linearGradient>
        <linearGradient id="paint4_linear_0_201" x1="19.7344" y1="11.1713" x2="7.67511" y2="11.1713"
            gradientUnits="userSpaceOnUse">
            <stop stop-color="#3EB9FC" />
            <stop offset="1" stop-color="#3AE5F6" />
        </linearGradient>
        <linearGradient id="paint5_linear_0_201" x1="3.54715" y1="15.9878" x2="3.54715" y2="18.2298"
            gradientUnits="userSpaceOnUse">
            <stop stop-color="#3EB9FC" />
            <stop offset="1" stop-color="#3AE5F6" />
        </linearGradient>
        <linearGradient id="paint6_linear_0_201" x1="21.3846" y1="7.34636" x2="23.0292" y2="8.26318"
            gradientUnits="userSpaceOnUse">
            <stop stop-color="#F280FF" />
            <stop offset="1" stop-color="#A723E4" />
        </linearGradient>
        <linearGradient id="paint7_linear_0_201" x1="22.611" y1="25.8261" x2="20.9466" y2="26.8049"
            gradientUnits="userSpaceOnUse">
            <stop stop-color="#3CB2FD" />
            <stop offset="1" stop-color="#2170F3" />
        </linearGradient>
    </defs>
</svg>